<svg width="40" height="40" viewBox="0 0 40 40" fill="none" xmlns="http://www.w3.org/2000/svg">
<path d="M35 11.6654V28.332C35 33.332 32.5 36.6654 26.6667 36.6654H13.3333C7.5 36.6654 5 33.332 5 28.332V11.6654C5 6.66536 7.5 3.33203 13.3333 3.33203H26.6667C32.5 3.33203 35 6.66536 35 11.6654Z" stroke="white" stroke-width="2" stroke-miterlimit="10" stroke-linecap="round" stroke-linejoin="round"/>
<path d="M22.0837 23.332H29.167M15.0003 29.9987H29.167M25.8337 3.33203V16.432C25.8337 17.1654 24.967 17.532 24.4337 17.0487L20.567 13.482C20.4136 13.3376 20.211 13.2573 20.0003 13.2573C19.7897 13.2573 19.587 13.3376 19.4337 13.482L15.567 17.0487C15.0337 17.532 14.167 17.1654 14.167 16.432V3.33203H25.8337Z" stroke="white" stroke-width="2" stroke-miterlimit="10" stroke-linecap="round" stroke-linejoin="round"/>
</svg>
