<svg width="40" height="41" viewBox="0 0 40 41" fill="none" xmlns="http://www.w3.org/2000/svg">
<g id="Iconsax/Linear/directboxsend">
<path id="Vector" d="M19.9993 13.832V3.83203M19.9993 3.83203L16.666 7.16536M19.9993 3.83203L23.3327 7.16536" stroke="white" stroke-width="2" stroke-linecap="round" stroke-linejoin="round"/>
<path id="Vector_2" d="M8.33333 20.4997V17.1664C8.33333 13.8164 8.33333 11.0497 13.3333 10.5664M31.6667 20.4997V17.1664C31.6667 13.8164 31.6667 11.0497 26.6667 10.5664M11.6667 20.4997C5 20.4997 5 23.4831 5 27.1664V28.8331C5 33.4331 5 37.1664 13.3333 37.1664H26.6667C33.3333 37.1664 35 33.4331 35 28.8331V27.1664C35 23.4831 35 20.4997 28.3333 20.4997C26.6667 20.4997 26.2 20.8497 25.3333 21.4997L23.6333 23.2997C23.166 23.7969 22.6017 24.1931 21.9754 24.4639C21.3491 24.7347 20.674 24.8744 19.9917 24.8744C19.3093 24.8744 18.6342 24.7347 18.0079 24.4639C17.3816 24.1931 16.8174 23.7969 16.35 23.2997L14.6667 21.4997C13.8 20.8497 13.3333 20.4997 11.6667 20.4997Z" stroke="white" stroke-width="2" stroke-miterlimit="10" stroke-linecap="round" stroke-linejoin="round"/>
</g>
</svg>
