<svg width="40" height="40" viewBox="0 0 40 40" fill="none" xmlns="http://www.w3.org/2000/svg">
<g id="ph:graduation-cap-light">
<path id="Vector" d="M39.1908 14.1738L20.4408 4.17376C20.3054 4.10073 20.154 4.0625 20.0002 4.0625C19.8464 4.0625 19.695 4.10073 19.5596 4.17376L0.809572 14.1738C0.659967 14.2538 0.534898 14.373 0.447703 14.5186C0.360507 14.6641 0.314453 14.8306 0.314453 15.0003C0.314453 15.17 0.360507 15.3365 0.447703 15.4821C0.534898 15.6276 0.659967 15.7468 0.809572 15.8269L5.3127 18.23V25.9831C5.31256 26.5202 5.51 27.0385 5.86738 27.4394C7.87832 29.6784 12.3893 33.4378 20.0002 33.4378C22.6802 33.463 25.3377 32.9458 27.8127 31.9175V37.5003C27.8127 37.749 27.9115 37.9874 28.0873 38.1632C28.2631 38.3391 28.5016 38.4378 28.7502 38.4378C28.9988 38.4378 29.2373 38.3391 29.4131 38.1632C29.5889 37.9874 29.6877 37.749 29.6877 37.5003V30.9925C31.3517 30.0554 32.8529 28.855 34.133 27.4378C34.4912 27.0381 34.6888 26.5199 34.6877 25.9831V18.23L39.1908 15.8269C39.3404 15.7468 39.4655 15.6276 39.5527 15.4821C39.6399 15.3365 39.6859 15.17 39.6859 15.0003C39.6859 14.8306 39.6399 14.6641 39.5527 14.5186C39.4655 14.373 39.3404 14.2538 39.1908 14.1738ZM20.0002 31.5628C13.1252 31.5628 9.0627 28.1941 7.2627 26.1863C7.21429 26.1297 7.18769 26.0576 7.1877 25.9831V19.23L19.5596 25.8269C19.6952 25.8991 19.8465 25.9369 20.0002 25.9369C20.1539 25.9369 20.3052 25.8991 20.4408 25.8269L27.8127 21.8956V29.8644C25.7814 30.8363 23.1955 31.5628 20.0002 31.5628ZM32.8127 25.9831C32.8127 26.0576 32.7861 26.1297 32.7377 26.1863C31.8372 27.1838 30.8122 28.0613 29.6877 28.7972V20.8956L32.8127 19.23V25.9831ZM29.3518 18.9519C29.3034 18.9099 29.2511 18.8727 29.1955 18.841L20.4455 14.1753C20.2275 14.0706 19.9775 14.0542 19.7477 14.1295C19.5179 14.2048 19.3261 14.366 19.2123 14.5794C19.0986 14.7928 19.0717 15.0419 19.1373 15.2747C19.2028 15.5074 19.3558 15.7058 19.5643 15.8284L27.383 20.0003L20.0002 23.9378L3.24238 15.0003L20.0002 6.06282L36.758 15.0003L29.3518 18.9519Z" fill="white"/>
</g>
</svg>
