<svg width="40" height="40" viewBox="0 0 40 40" fill="none" xmlns="http://www.w3.org/2000/svg">
<path d="M33.3327 13.7487V29.9987C33.3327 34.9987 30.3493 36.6654 26.666 36.6654H13.3327C9.64935 36.6654 6.66602 34.9987 6.66602 29.9987V13.7487C6.66602 8.33203 9.64935 7.08203 13.3327 7.08203C13.3327 8.11536 13.7493 9.0487 14.4327 9.73203C15.116 10.4154 16.0493 10.832 17.0827 10.832H22.916C24.9827 10.832 26.666 9.1487 26.666 7.08203C30.3493 7.08203 33.3327 8.33203 33.3327 13.7487Z" stroke="white" stroke-width="2" stroke-linecap="round" stroke-linejoin="round"/>
<path d="M13.334 21.6654H20.0007M13.334 28.332H26.6673M26.6673 7.08203C26.6673 9.1487 24.984 10.832 22.9173 10.832H17.084C16.0507 10.832 15.1173 10.4154 14.434 9.73203C13.7507 9.0487 13.334 8.11536 13.334 7.08203C13.334 5.01536 15.0173 3.33203 17.084 3.33203H22.9173C23.9507 3.33203 24.884 3.7487 25.5673 4.43203C26.2507 5.11536 26.6673 6.0487 26.6673 7.08203Z" stroke="white" stroke-width="2" stroke-linecap="round" stroke-linejoin="round"/>
</svg>
