<svg width="40" height="40" viewBox="0 0 40 40" fill="none" xmlns="http://www.w3.org/2000/svg">
<path d="M5.68359 36.6663C5.68359 30.2163 12.1003 24.9997 20.0003 24.9997C21.6003 24.9997 23.1503 25.2163 24.6003 25.6163M20.0003 19.9997C22.2104 19.9997 24.33 19.1217 25.8928 17.5589C27.4556 15.9961 28.3336 13.8765 28.3336 11.6663C28.3336 9.4562 27.4556 7.33659 25.8928 5.77378C24.33 4.21098 22.2104 3.33301 20.0003 3.33301C17.7901 3.33301 15.6705 4.21098 14.1077 5.77378C12.5449 7.33659 11.6669 9.4562 11.6669 11.6663C11.6669 13.8765 12.5449 15.9961 14.1077 17.5589C15.6705 19.1217 17.7901 19.9997 20.0003 19.9997Z" stroke="white" stroke-width="2" stroke-linecap="round" stroke-linejoin="round"/>
<path d="M36.6673 30.0002C36.6673 31.2502 36.3173 32.4336 35.7007 33.4336C35.3507 34.0336 34.9007 34.5669 34.384 35.0002C33.2173 36.0502 31.684 36.6669 30.0007 36.6669C28.8516 36.6693 27.7217 36.3724 26.7223 35.8055C25.7228 35.2385 24.8882 34.4211 24.3007 33.4336C23.6662 32.4009 23.3315 31.2122 23.334 30.0002C23.334 27.9002 24.3007 26.0169 25.834 24.8002C26.814 24.0148 27.996 23.5222 29.2437 23.3793C30.4915 23.2363 31.7542 23.4488 32.8865 23.9923C34.0187 24.5358 34.9744 25.3881 35.6433 26.451C36.3122 27.514 36.6672 28.7443 36.6673 30.0002Z" stroke="white" stroke-width="2" stroke-miterlimit="10" stroke-linecap="round" stroke-linejoin="round"/>
<path d="M27.4004 29.9995L29.0504 31.6495L32.6004 28.3662" stroke="white" stroke-width="2" stroke-linecap="round" stroke-linejoin="round"/>
</svg>
